<svg width="65" height="65" viewBox="0 0 65 65" fill="none" xmlns="http://www.w3.org/2000/svg">
<path fill-rule="evenodd" clip-rule="evenodd" d="M22.272 8.16078C18.6139 9.14419 14.9796 10.2138 11.372 11.3688C11.0455 11.4696 10.7541 11.6604 10.5312 11.9194C10.3083 12.1783 10.163 12.4949 10.112 12.8328C7.98 28.4208 12.9 39.7968 18.768 47.2888C21.712 51.0488 24.9 53.8328 27.556 55.6608C28.888 56.5728 30.06 57.2368 30.984 57.6608C31.448 57.8728 31.824 58.0168 32.112 58.1008C32.239 58.1416 32.3686 58.1737 32.5 58.1968C32.528 58.1928 32.652 58.1768 32.888 58.1048C33.176 58.0168 33.552 57.8728 34.016 57.6608C34.936 57.2368 36.116 56.5728 37.444 55.6608C40.7745 53.324 43.7366 50.5021 46.232 47.2888C52.1 39.7968 57.02 28.4208 54.888 12.8328C54.837 12.4949 54.6917 12.1783 54.4688 11.9194C54.2459 11.6604 53.9545 11.4696 53.628 11.3688C51.124 10.5688 46.9 9.26478 42.728 8.16078C38.464 7.03678 34.54 6.19678 32.5 6.19678C30.46 6.19678 26.54 7.03678 22.272 8.16078ZM21.248 4.29678C25.42 3.19278 29.848 2.19678 32.5 2.19678C35.148 2.19678 39.58 3.19278 43.752 4.29678C47.4732 5.29588 51.1702 6.38285 54.84 7.55678C56.952 8.22878 58.544 10.0488 58.852 12.2928C61.144 29.0808 55.828 41.5208 49.384 49.7528C46.6379 53.2856 43.3777 56.3867 39.712 58.9528C38.4374 59.8456 37.09 60.6297 35.684 61.2968C34.604 61.7928 33.452 62.1968 32.5 62.1968C31.548 62.1968 30.396 61.7928 29.316 61.2968C27.9097 60.6303 26.5623 59.8461 25.288 58.9528C21.6238 56.3864 18.3649 53.2853 15.62 49.7528C9.168 41.5208 3.856 29.0808 6.148 12.2928C6.30125 11.2051 6.75939 10.183 7.46941 9.34484C8.17942 8.50669 9.11228 7.88675 10.16 7.55678C13.8298 6.38288 17.5268 5.29591 21.248 4.29678Z" fill="#FBFF24"/>
<path fill-rule="evenodd" clip-rule="evenodd" d="M43.916 24.7808C44.1022 24.9665 44.25 25.1872 44.3508 25.4302C44.4517 25.6732 44.5036 25.9337 44.5036 26.1968C44.5036 26.4598 44.4517 26.7203 44.3508 26.9633C44.25 27.2063 44.1022 27.427 43.916 27.6128L31.916 39.6128C31.7302 39.799 31.5095 39.9468 31.2665 40.0476C31.0235 40.1484 30.7631 40.2003 30.5 40.2003C30.2369 40.2003 29.9764 40.1484 29.7335 40.0476C29.4905 39.9468 29.2698 39.799 29.084 39.6128L23.084 33.6128C22.898 33.4268 22.7505 33.206 22.6499 32.9631C22.5493 32.7201 22.4975 32.4597 22.4975 32.1968C22.4975 31.9338 22.5493 31.6734 22.6499 31.4304C22.7505 31.1875 22.898 30.9667 23.084 30.7808C23.2699 30.5948 23.4907 30.4473 23.7337 30.3467C23.9766 30.246 24.237 30.1942 24.5 30.1942C24.763 30.1942 25.0234 30.246 25.2663 30.3467C25.5093 30.4473 25.73 30.5948 25.916 30.7808L30.5 35.3688L41.084 24.7808C41.2698 24.5945 41.4905 24.4467 41.7335 24.3459C41.9764 24.2451 42.2369 24.1932 42.5 24.1932C42.7631 24.1932 43.0235 24.2451 43.2665 24.3459C43.5095 24.4467 43.7302 24.5945 43.916 24.7808Z" fill="#FBFF24"/>
</svg>
