<svg width="64" height="64" viewBox="0 0 64 64" fill="none" xmlns="http://www.w3.org/2000/svg">
<path d="M56.7562 22.0688L40.8875 19.7625L33.7937 5.38126C33.6 4.98751 33.2812 4.66876 32.8875 4.47501C31.9 3.98751 30.7 4.39376 30.2062 5.38126L23.1125 19.7625L7.24375 22.0688C6.80625 22.1313 6.40625 22.3375 6.1 22.65C5.72976 23.0306 5.52574 23.5425 5.53277 24.0734C5.5398 24.6043 5.75731 25.1107 6.1375 25.4813L17.6187 36.675L14.9062 52.4813C14.8426 52.8489 14.8833 53.2271 15.0237 53.5728C15.1641 53.9186 15.3985 54.2181 15.7004 54.4374C16.0023 54.6566 16.3597 54.7869 16.7319 54.8135C17.1041 54.84 17.4763 54.7617 17.8062 54.5875L32 47.125L46.1937 54.5875C46.5812 54.7938 47.0312 54.8625 47.4625 54.7875C48.55 54.6 49.2812 53.5688 49.0938 52.4813L46.3812 36.675L57.8625 25.4813C58.175 25.175 58.3812 24.775 58.4437 24.3375C58.6125 23.2438 57.85 22.2313 56.7562 22.0688ZM41.55 35.1L43.8063 48.2438L32 42.0438L20.1937 48.25L22.45 35.1063L12.9 25.7938L26.1 23.875L32 11.9188L37.9 23.875L51.1 25.7938L41.55 35.1Z" fill="#FBFF24"/>
</svg>
